<svg width="40" height="40" viewBox="0 0 40 40" fill="none" xmlns="http://www.w3.org/2000/svg">
<g clip-path="url(#clip0_10_1152)">
<path d="M39.3326 19.9956H40C40 8.97 31.03 0 20.0044 0C8.97889 0 0 8.97 0 19.9956C0 30.0156 7.39481 38.327 17.0144 39.7774C17.5041 39.8485 18.0111 39.9111 18.5093 39.9378C19.0078 39.9822 19.5059 40 20.0044 40C25.4148 40 30.3181 37.8467 33.913 34.3493C33.9307 34.3315 33.9485 34.3226 33.9663 34.3048L34.1085 34.4381L36.1641 36.3515L37.6948 29.6685L38.2378 27.2926L38.0507 27.3459L35.6393 28.0844L34.7852 28.3515L29.3567 30.0156L31.5104 32.0267C31.5015 32.0444 31.4837 32.0533 31.4659 32.0711C28.4759 34.9185 24.4448 36.663 20.0044 36.663V37.3304C24.623 37.3304 28.8407 35.5063 31.9556 32.5252L32 32.4807C32.1422 32.3474 32.2933 32.1959 32.4359 32.0537L32.2044 31.84L32.2311 31.8133L30.6026 30.3096L34.3133 29.1707L35.2033 28.8859L37.3748 28.2274L37.09 29.4378L36.6363 31.4311L35.7911 35.1241L34.5541 33.9763L34.4296 33.8607L34.0915 33.5493L33.9137 33.3893C33.7715 33.5407 33.5844 33.7363 33.4689 33.8519C33.4511 33.8696 33.4333 33.8874 33.4244 33.8963C29.9452 37.26 25.2107 39.3333 20.0052 39.3333C19.5067 39.3333 19.0085 39.3156 18.51 39.2711C18.003 39.2356 17.5044 39.1822 17.0152 39.1022C7.76852 37.6596 0.667407 29.6419 0.667407 19.9956C0.667407 9.3437 9.3437 0.667407 20.0044 0.667407C30.6652 0.667407 39.3326 9.3437 39.3326 19.9956Z" fill="#869FB1"/>
<path d="M18.5093 37.2593V36.5919C18.0022 36.5474 17.5037 36.4848 17.0145 36.387V37.0722C17.5041 37.1611 18.0022 37.2237 18.5093 37.2593Z" fill="#869FB1"/>
<path d="M30.2737 19.9956C30.2737 14.3359 25.6641 9.7263 20.0045 9.7263C14.3448 9.7263 9.72632 14.3359 9.72632 19.9956C9.72632 25.6552 14.3359 30.2737 20.0045 30.2737C25.673 30.2737 30.2737 25.6641 30.2737 19.9956ZM10.3937 19.9956C10.3937 14.7007 14.7008 10.3848 20.0045 10.3848C25.3082 10.3848 29.6063 14.7007 29.6063 19.9956C29.6063 25.2904 25.2993 29.6063 20.0045 29.6063C14.7097 29.6063 10.3937 25.2993 10.3937 19.9956Z" fill="#869FB1"/>
<path d="M18.0074 23.9337L13.9926 19.7326L14.6356 19.1174L18.0545 22.6944L25.4115 16.0663L26.0074 16.7267L18.0074 23.9337Z" fill="#869FB1"/>
</g>
<defs>
<clipPath id="clip0_10_1152">
<rect width="40" height="40" fill="white"/>
</clipPath>
</defs>
</svg>
