<svg width="40" height="40" viewBox="0 0 40 40" fill="none" xmlns="http://www.w3.org/2000/svg">
<g clip-path="url(#clip0_10_1145)">
<path d="M39.3325 19.9953H40C40 8.96993 31.0301 0 20.0043 0C8.97849 0 0 8.96993 0 19.9953C0 30.0155 7.39471 38.3269 17.0143 39.7774C17.5039 39.8485 18.011 39.911 18.5091 39.9375C19.0076 39.9821 19.5058 39.9996 20.0043 39.9996C25.4146 39.9996 30.3179 37.8462 33.9128 34.3492C33.9307 34.3313 33.9486 34.3224 33.9664 34.3045L34.1087 34.4378L36.1641 36.351L37.6947 29.6682L38.2375 27.2921L38.0506 27.3454L35.6392 28.084L34.7851 28.351L29.3569 30.0148L31.5107 32.026C31.5018 32.0439 31.4839 32.0528 31.466 32.0707C28.4761 34.918 24.4451 36.6623 20.0047 36.6623V37.3298C24.6231 37.3298 28.8409 35.5055 31.9556 32.5245L32.0003 32.4798C32.1425 32.3465 32.2937 32.195 32.4363 32.0528L32.2051 31.8391L32.2319 31.8123L30.6034 30.3085L34.3142 29.1693L35.204 28.8845L37.3756 28.2259L37.0908 29.4362L36.637 31.4296L35.7915 35.1224L34.5543 33.9746L34.43 33.8588L34.0915 33.5472L33.9136 33.3871C33.7713 33.5383 33.5841 33.7341 33.4687 33.8499C33.4508 33.8678 33.4329 33.8856 33.424 33.8946C29.9448 37.2584 25.2106 39.3317 20.0047 39.3317C19.5061 39.3317 19.008 39.3138 18.5095 39.2695C18.0024 39.2342 17.5039 39.1806 17.0147 39.1005C7.7685 37.6597 0.667542 29.6418 0.667542 19.9953C0.667542 9.34372 9.34372 0.667542 20.0043 0.667542C30.6648 0.667542 39.3325 9.34372 39.3325 19.9957V19.9953Z" fill="#869FB1"/>
<path d="M18.5091 37.2591V36.5916C18.002 36.5469 17.5035 36.4847 17.0143 36.3868V37.0718C17.5039 37.1608 18.002 37.223 18.5091 37.2587V37.2591Z" fill="#869FB1"/>
<path d="M30.2735 19.9953C30.2735 14.3359 25.6637 9.72607 20.0043 9.72607C14.3449 9.72607 9.72607 14.3356 9.72607 19.9953C9.72607 25.6551 14.3356 30.2735 20.0043 30.2735C25.673 30.2735 30.2735 25.664 30.2735 19.9953ZM10.3936 19.9953C10.3936 14.7004 14.7008 10.3847 20.0043 10.3847C25.3078 10.3847 29.606 14.7004 29.606 19.9953C29.606 25.2903 25.2988 29.606 20.0043 29.606C14.7097 29.606 10.3936 25.2992 10.3936 19.9953Z" fill="#869FB1"/>
<path d="M16.738 21.5654H17.9045C17.9343 21.7895 17.9588 22.011 17.9935 22.231C18.1379 23.1503 18.7515 23.6365 19.7116 23.6826V23.5389C19.7116 22.4552 19.7098 21.3718 19.7142 20.288C19.7146 20.1722 19.6804 20.1324 19.5653 20.1096C19.0761 20.0125 18.6029 19.865 18.1599 19.6286C17.2835 19.1618 16.9141 18.4067 16.9469 17.4451C16.9946 16.056 18.0757 14.9871 19.4633 14.9294C19.4778 14.9287 19.4927 14.9283 19.5072 14.9275C19.6435 14.9211 19.7116 14.8502 19.7116 14.715C19.7116 14.5005 19.7116 14.2864 19.7116 14.0616H20.3278V14.8669C20.6975 14.9517 21.0553 15.0068 21.3952 15.1163C22.409 15.4436 23.0735 16.394 23.0356 17.4492C22.785 17.4492 22.533 17.4499 22.2809 17.4492C22.164 17.4488 22.0192 17.4849 21.9391 17.4291C21.8717 17.3825 21.8799 17.2269 21.8535 17.12C21.6674 16.3617 21.1264 15.9238 20.3312 15.9067C20.3312 15.9529 20.3312 15.999 20.3312 16.0448C20.3312 17.0113 20.3334 17.9778 20.3282 18.9443C20.3274 19.0542 20.368 19.0906 20.4644 19.123C20.9443 19.2839 21.4287 19.4354 21.8982 19.623C22.8033 19.9846 23.2489 20.6748 23.2608 21.6428C23.2683 22.2444 23.183 22.8301 22.8773 23.3636C22.6078 23.8338 22.2239 24.1853 21.7124 24.3588C21.3226 24.4913 20.9123 24.5628 20.511 24.6603C20.4551 24.6737 20.3978 24.6815 20.3323 24.6935V25.9392H19.7154V24.705C19.4309 24.6585 19.1591 24.6305 18.8955 24.568C17.8341 24.3174 17.1007 23.7124 16.8669 22.6093C16.7958 22.2735 16.7805 21.9257 16.7377 21.5661L16.738 21.5654ZM20.3382 23.7366C20.5076 23.7109 20.6621 23.6942 20.8137 23.6629C21.9697 23.4243 22.5117 21.9354 21.7679 21.0285C21.403 20.5836 20.865 20.4637 20.3382 20.301V23.7363V23.7366ZM19.7031 15.9022C19.6711 15.8993 19.6521 15.8959 19.6331 15.8959C18.8591 15.9037 18.2727 16.3922 18.1457 17.1617C18.0728 17.6055 18.129 18.0344 18.4711 18.3684C18.8095 18.699 19.2362 18.855 19.7031 18.9469V15.9019V15.9022Z" fill="#869FB1"/>
</g>
<defs>
<clipPath id="clip0_10_1145">
<rect width="40" height="40" fill="white"/>
</clipPath>
</defs>
</svg>
