<svg width="36" height="41" viewBox="0 0 36 41" fill="none" xmlns="http://www.w3.org/2000/svg">
<g clip-path="url(#clip0_10_1081)">
<path d="M30.8407 22.6313H17.4907C17.6448 22.8799 17.8153 23.1611 18.0019 23.4591H30.8407C31.5064 23.4591 32.0578 24.014 32.0578 24.7006V40.1722H15.6646V25.6282C15.4049 25.2723 15.137 24.8913 14.8612 24.486C14.853 24.5602 14.853 24.6268 14.853 24.701V41H32.8694V24.701C32.8694 23.5589 31.9526 22.6317 30.8407 22.6317V22.6313Z" fill="#869FB1"/>
<path d="M28.144 40.1695C28.144 40.1448 28.144 40.1117 28.1358 40.0866C28.1116 39.8053 28.0466 39.5237 27.9653 39.2588C27.6814 38.3484 27.1131 37.5621 26.3664 37.0155C25.6605 36.4941 24.8 36.1877 23.8586 36.1877C22.9172 36.1877 22.0571 36.4941 21.3508 37.0155C20.6041 37.5621 20.0362 38.3484 19.7519 39.2588C19.6709 39.5237 19.606 39.8053 19.5814 40.0866C19.5731 40.1117 19.5731 40.1444 19.5731 40.1695C19.5567 40.302 19.5489 40.4428 19.5489 40.5832C19.5489 40.7237 19.5571 40.8649 19.5731 40.9969H20.3847C20.3683 40.8645 20.3605 40.7237 20.3605 40.5832C20.3605 40.4428 20.3687 40.302 20.3847 40.1695C20.3847 40.1448 20.3929 40.1117 20.4011 40.0866C20.4336 39.7969 20.5064 39.5153 20.6123 39.2588C21.1317 37.9427 22.3896 37.0155 23.8586 37.0155C25.3276 37.0155 26.5855 37.9427 27.1049 39.2588C27.2105 39.5153 27.2832 39.7969 27.3161 40.0866C27.3243 40.1117 27.3325 40.1444 27.3325 40.1695C27.3489 40.302 27.3567 40.4428 27.3567 40.5832C27.3567 40.7237 27.3485 40.8649 27.3325 40.9969H28.144C28.1605 40.8645 28.1683 40.7237 28.1683 40.5832C28.1683 40.4428 28.1601 40.302 28.144 40.1695Z" fill="#869FB1"/>
<path d="M29.1097 28.5641C28.3146 28.2082 27.6731 27.5623 27.316 26.7513C27.1862 26.478 27.097 26.18 27.0481 25.8736H26.2366C26.269 26.18 26.334 26.4696 26.4396 26.7513C26.8698 28.0179 27.8597 29.0192 29.1097 29.4417C29.3694 29.541 29.6373 29.6073 29.9213 29.632V28.8042C29.6373 28.7544 29.3694 28.6718 29.1097 28.5641Z" fill="#869FB1"/>
<path d="M18.5295 28.9226V28.7071C18.4646 28.7239 18.3996 28.7486 18.3347 28.757C18.1317 28.8149 17.9291 28.8396 17.7179 28.848V29.6758C17.8638 29.6674 18.0019 29.659 18.1481 29.6427C18.278 29.6179 18.4079 29.5928 18.5295 29.5597C18.7407 29.5098 18.9515 29.4436 19.1463 29.361C18.9597 29.2533 18.7567 29.1045 18.5295 28.9222V28.9226ZM20.9884 25.8763C20.9642 26.0502 20.9235 26.2238 20.8586 26.3893C20.8261 26.5138 20.7776 26.6379 20.7205 26.7536C20.6396 26.9359 20.5422 27.1178 20.4202 27.2833C20.5907 27.6308 20.6959 27.9539 20.7366 28.2272C20.972 27.9623 21.175 27.6723 21.337 27.3496C21.4426 27.1593 21.5235 26.9602 21.5967 26.7536C21.7019 26.4723 21.7672 26.1823 21.7996 25.8763H20.9881H20.9884Z" fill="#869FB1"/>
<path d="M23.8616 29.9821C22.709 29.9821 21.7758 30.9424 21.7758 32.1097C21.7758 33.277 22.709 34.2368 23.8616 34.2368C25.0142 34.2368 25.947 33.285 25.947 32.1097C25.947 30.9344 25.0138 29.9821 23.8616 29.9821ZM23.8616 33.409C23.1556 33.409 22.5873 32.8298 22.5873 32.1097C22.5873 31.3896 23.1552 30.8099 23.8616 30.8099C24.5679 30.8099 25.1355 31.3976 25.1355 32.1097C25.1355 32.8218 24.5675 33.409 23.8616 33.409Z" fill="#869FB1"/>
<path d="M33.6384 36.1877H32.0556V37.0155H33.6384C34.4903 37.0155 35.1884 37.7276 35.1884 38.5969C35.1884 39.4662 34.4903 40.1695 33.6384 40.1695H13.7877C12.9354 40.1695 12.2373 39.4658 12.2373 38.5969C12.2373 37.728 12.9354 37.0155 13.7877 37.0155H15.6623V36.1877H13.7877C12.481 36.1877 11.4261 37.2721 11.4261 38.5965C11.4261 39.921 12.4813 40.9969 13.7877 40.9969H33.6384C34.9448 40.9969 36 39.9206 36 38.5965C36 37.2724 34.9448 36.1877 33.6384 36.1877Z" fill="#869FB1"/>
<path d="M29.1123 28.5667V40.1223H18.5295V28.7071C18.4646 28.7239 18.3996 28.7486 18.3347 28.757C18.1317 28.8149 17.9291 28.8396 17.7179 28.848V40.9996H29.9239V28.8065C29.6399 28.7566 29.372 28.674 29.1123 28.5663V28.5667ZM27.0511 25.8763H20.9888C20.9646 26.0502 20.9239 26.2238 20.859 26.3893C20.8265 26.5138 20.778 26.6379 20.7209 26.7536H27.3187C27.1888 26.4807 27.0996 26.1823 27.0508 25.8763H27.0511Z" fill="#869FB1"/>
<path d="M4.78249 15.8659C4.26719 15.8659 3.74965 15.6832 3.33137 15.3114L0.755623 13.0187C-0.162288 12.2008 -0.257064 10.7747 0.544056 9.83842L8.30376 0.769601C9.10674 -0.165521 10.5038 -0.261051 11.4217 0.553803L13.9974 2.84727C14.4422 3.24347 14.709 3.79229 14.7489 4.39287C14.7885 4.99345 14.5967 5.57385 14.2082 6.02676L6.44928 15.096C6.01271 15.6052 5.39928 15.8663 4.78249 15.8663V15.8659ZM1.28995 12.3949L3.8657 14.6876C4.44592 15.2067 5.33174 15.1435 5.83734 14.551L13.597 5.48175C13.8426 5.19554 13.9638 4.82865 13.9385 4.44881C13.9138 4.06898 13.7452 3.72226 13.4631 3.47145L10.8873 1.17798C10.3079 0.662273 9.42279 0.722788 8.9157 1.31461L1.156 10.3834C0.648906 10.9753 0.708981 11.8773 1.28995 12.3945V12.3949Z" fill="#869FB1"/>
<path d="M30.0616 22.6313L29.9317 22.4079C27.3104 18.1038 24.0399 12.9216 23.35 12.7146L22.3276 12.3918C20.8828 11.9446 18.4563 11.1834 17.2634 10.8439C16.0787 10.5044 14.0903 7.5906 13.4246 6.49791L13.1325 6.02597L6.49402 13.7821L6.5429 13.9892C6.57536 14.1384 7.41118 17.7886 9.32648 19.9162C10.1216 20.8018 10.8769 21.4641 11.5422 22.0601C12.4757 22.8795 13.2791 23.5832 14.0093 24.6839C14.2772 25.0812 14.5612 25.4953 14.8533 25.901C15.113 26.2653 15.3892 26.6375 15.6649 26.9937C16.3384 27.863 17.0444 28.674 17.7183 29.2868C17.8642 29.4113 18.0022 29.527 18.1485 29.643C18.2783 29.7424 18.4 29.8333 18.5298 29.9159C18.9843 30.2139 19.4224 30.3879 19.8201 30.3879H19.8283C19.869 30.3795 20.997 30.1725 21.4108 29.1795C21.6298 28.6661 21.6056 28.0537 21.3377 27.35C21.2728 27.1597 21.1836 26.9606 21.0698 26.7539C21.0048 26.6299 20.9399 26.5142 20.8586 26.3897C20.8019 26.2824 20.7369 26.1827 20.6638 26.0753C20.0063 25.0984 19.4384 24.2211 18.9597 23.4595C18.7813 23.1615 18.6108 22.8882 18.4563 22.6317C18.213 22.2428 18.0101 21.9033 17.8395 21.6136C17.4339 20.935 17.5067 20.0574 18.0183 19.5443C18.5134 19.0397 19.1869 19.056 20.0795 19.5691L23.131 22.6317L23.5448 23.0454H30.3131L30.0616 22.6317V22.6313ZM20.6153 18.9479L20.5339 18.8817C18.9675 17.9462 17.9936 18.4098 17.45 18.9559C16.6709 19.7339 16.5492 21.0336 17.1418 22.0437C17.247 22.2176 17.3608 22.4163 17.4907 22.6313C17.6448 22.8799 17.8153 23.1611 18.0019 23.4591C18.5295 24.32 19.203 25.3712 19.9903 26.5469C20.1608 26.8034 20.3067 27.052 20.4205 27.2837C20.591 27.6312 20.6963 27.9543 20.7369 28.2276C20.7612 28.4674 20.7369 28.6744 20.6638 28.8484C20.4366 29.4029 19.7548 29.5601 19.7548 29.5684C19.5843 29.5684 19.3817 29.4939 19.1463 29.3614C18.9597 29.2537 18.7567 29.1049 18.5295 28.9226C18.4645 28.8647 18.3996 28.8153 18.3347 28.757C17.5798 28.078 16.6627 27.0105 15.6645 25.6281C15.4048 25.2723 15.1369 24.8913 14.8612 24.486C14.8045 24.403 14.7395 24.312 14.6828 24.2211C13.8877 23.0291 13.0108 22.2507 12.0776 21.4313C11.3959 20.8269 10.6899 20.2062 9.91865 19.3537C8.3929 17.657 7.58133 14.7842 7.38656 14.0063L13.0269 7.40905C13.7653 8.54285 15.6321 11.2333 17.044 11.639C18.2291 11.9785 20.6474 12.7317 22.0918 13.1869L23.0575 13.4849C23.5686 13.8244 26.8287 18.8505 29.3366 22.948L24.5403 22.8822L20.6149 18.9479H20.6153Z" fill="#869FB1"/>
</g>
<defs>
<clipPath id="clip0_10_1081">
<rect width="36" height="41" fill="white"/>
</clipPath>
</defs>
</svg>
