<svg width="38" height="38" viewBox="0 0 38 38" fill="none" xmlns="http://www.w3.org/2000/svg">
<g clip-path="url(#clip0_10_1199)">
<path d="M27.2333 25.3333H25.3333C25.2446 25.3333 23.1546 25.3498 21.7188 26.7856C20.2831 28.2213 20.2666 30.3113 20.2666 30.4V32.3C20.2666 32.6496 20.5497 32.9333 20.8999 32.9333H22.7999C22.8886 32.9333 24.9786 32.9168 26.4144 31.4811C27.8501 30.0453 27.8666 27.9553 27.8666 27.8666V25.9666C27.8667 25.6171 27.5835 25.3333 27.2333 25.3333ZM26.6 27.8667C26.6 27.8832 26.5873 29.5165 25.5189 30.5856C24.4682 31.6363 22.8387 31.6661 22.7987 31.6667H21.5333V30.4C21.5333 30.3835 21.546 28.7502 22.6144 27.6811C23.6726 26.6228 25.3193 26.6 25.3333 26.6H26.6V27.8667Z" fill="#869FB1"/>
<path d="M11.4 29.1333H9.50001C9.14977 29.1333 8.8667 29.417 8.8667 29.7666V31.6666C8.8667 31.7553 8.88318 33.8453 10.3189 35.2811C11.7547 36.7168 13.8447 36.7333 13.9334 36.7333H15.8334C16.1836 36.7333 16.4667 36.4496 16.4667 36.1V34.2C16.4667 34.1113 16.4502 32.0213 15.0145 30.5855C13.5787 29.1498 11.4887 29.1333 11.4 29.1333ZM15.2 35.4667H13.9333C13.9175 35.4667 12.2835 35.454 11.2144 34.3856C10.1561 33.3273 10.1333 31.6813 10.1333 31.6667V30.4H11.4C11.4158 30.4 13.0498 30.4127 14.1189 31.4811C15.1772 32.5393 15.2 34.1854 15.2 34.2V35.4667Z" fill="#869FB1"/>
<path d="M19.0001 8.23331C19.6987 8.23331 20.2668 8.80138 20.2668 9.5C20.2668 9.84957 20.5499 10.1333 20.9001 10.1333C21.2503 10.1333 21.5334 9.84957 21.5334 9.5C21.5334 8.32327 20.7234 7.33972 19.6334 7.05657V6.96662C19.6334 6.61705 19.3503 6.33331 19.0001 6.33331C18.6499 6.33331 18.3668 6.61705 18.3668 6.96662V7.05657C17.2768 7.33965 16.4668 8.32327 16.4668 9.5C16.4668 10.8972 17.603 12.0333 19.0001 12.0333C19.6987 12.0333 20.2668 12.6014 20.2668 13.3C20.2668 13.9986 19.6987 14.5667 19.0001 14.5667C18.3016 14.5667 17.7334 13.9986 17.7334 13.3C17.7334 12.9504 17.4503 12.6667 17.1001 12.6667C16.7499 12.6667 16.4668 12.9504 16.4668 13.3C16.4668 14.4767 17.2768 15.4603 18.3668 15.7434V15.8334C18.3668 16.183 18.6499 16.4667 19.0001 16.4667C19.3503 16.4667 19.6334 16.183 19.6334 15.8334V15.7434C20.7234 15.4604 21.5334 14.4767 21.5334 13.3C21.5334 11.9028 20.3972 10.7667 19.0001 10.7667C18.3016 10.7667 17.7334 10.1986 17.7334 9.5C17.7334 8.80146 18.3016 8.23331 19.0001 8.23331Z" fill="#869FB1"/>
<path d="M34.8333 0H3.16669C1.42055 0 0 1.42055 0 3.16669V19.6334C0 21.3795 1.42055 22.8 3.16669 22.8H17.7334V37.3667C17.7334 37.7163 18.0165 38 18.3667 38C18.7169 38 19 37.7163 19 37.3667V22.1667C19 21.8171 18.7169 21.5334 18.3667 21.5334H3.16669C2.11917 21.5334 1.26669 20.6809 1.26669 19.6334V3.16669C1.26669 2.11917 2.11917 1.26669 3.16669 1.26669H34.8334C35.8809 1.26669 36.7334 2.11917 36.7334 3.16669V19.6334C36.7334 20.6809 35.8809 21.5334 34.8334 21.5334H20.9C20.5498 21.5334 20.2667 21.8171 20.2667 22.1667C20.2667 22.5163 20.5498 22.8 20.9 22.8H34.8333C36.5794 22.8 38 21.3795 38 19.6333V3.16669C38 1.42055 36.5795 0 34.8333 0Z" fill="#869FB1"/>
<path d="M31.6665 19.6333C31.6665 17.8872 33.0871 16.4666 34.8332 16.4666C35.1834 16.4666 35.4665 16.1829 35.4665 15.8333V6.96669C35.4665 6.61712 35.1834 6.33339 34.8332 6.33339C33.0871 6.33339 31.6665 4.91284 31.6665 3.16669C31.6665 2.81712 31.3834 2.53339 31.0332 2.53339H6.96651C6.61627 2.53339 6.3332 2.81712 6.3332 3.16669C6.3332 4.91277 4.91266 6.33339 3.16651 6.33339C2.81627 6.33339 2.5332 6.61712 2.5332 6.96669V15.8334C2.5332 16.183 2.81627 16.4667 3.16651 16.4667C4.91258 16.4667 6.3332 17.8872 6.3332 19.6334C6.3332 19.983 6.61627 20.2667 6.96651 20.2667H31.0332C31.3834 20.2667 31.6665 19.983 31.6665 19.6333ZM7.55484 19C7.27615 17.0613 5.73908 15.5237 3.79982 15.245V7.55503C5.73908 7.27634 7.27615 5.7386 7.55484 3.8H30.4448C30.7235 5.73867 32.2606 7.27634 34.1998 7.55503V15.245C32.2606 15.5237 30.7235 17.0614 30.4448 19H7.55484Z" fill="#869FB1"/>
</g>
<defs>
<clipPath id="clip0_10_1199">
<rect width="38" height="38" fill="white"/>
</clipPath>
</defs>
</svg>
