<svg width="48" height="41" viewBox="0 0 48 41" fill="none" xmlns="http://www.w3.org/2000/svg">
<g clip-path="url(#clip0_10_1092)">
<path d="M20.5436 9.23574C20.5156 8.91756 20.4689 8.59893 20.4124 8.2803C19.4502 3.55972 15.2929 0 10.3044 0C4.62444 0 0 4.63681 0 10.332C0 16.0272 4.62444 20.664 10.3044 20.664C12.2476 20.664 14.0693 20.1208 15.62 19.184C15.8818 19.025 16.1338 18.8472 16.3862 18.6595L15.732 17.9947C15.4796 18.1725 15.2089 18.3414 14.9382 18.5004C13.5742 19.2781 11.9951 19.7277 10.3044 19.7277C5.13822 19.7277 0.934222 15.5125 0.934222 10.3324C0.934222 5.15241 5.13822 0.93672 10.3044 0.93672C14.9476 0.93672 18.8151 4.3369 19.5436 8.7861C19.6276 9.28253 19.6747 9.78833 19.6747 10.3035V10.3316C19.6747 10.4719 19.6747 10.6029 19.6649 10.7438C19.6462 11.156 19.5996 11.5584 19.5342 11.9523L20.3191 12.7669C20.4124 12.4015 20.4778 12.0178 20.5244 11.6337C20.5804 11.2028 20.6084 10.7718 20.6084 10.3316C20.6084 9.96613 20.5898 9.60071 20.5431 9.2353L20.5436 9.23574ZM17.9649 15.7366L18.6373 16.3922C18.824 16.139 19.0018 15.877 19.1604 15.5958L18.4693 14.9309C18.3196 15.2121 18.1516 15.4742 17.9649 15.7366Z" fill="#869FB1"/>
<path d="M42.8244 21.1323L41.2271 22.7339L38.6956 20.1956L37.3596 21.5352L26.8871 32.0356L29.3907 34.5459L28.0453 35.8948L33.1462 41L48 26.7339L42.8244 21.1323ZM29.372 35.8948L35.5658 29.6751L34.912 29.0196L30.0542 33.881L28.2044 32.0356L38.6956 21.5165L41.2271 24.0548L42.7969 22.4906L46.6924 26.6965L33.1556 39.6889L29.372 35.8948Z" fill="#869FB1"/>
<path d="M37.6956 21.0009L37.3596 21.5348L37.2004 21.7879C37.1911 21.7879 37.1724 21.7692 37.1444 21.7505C36.8547 21.5633 35.5467 20.5513 35.3693 18.5094C35.3133 17.8538 35.3227 17.4229 35.332 17.1324C35.3444 16.8014 35.1265 16.4204 34.6782 15.9893C33.576 14.9497 26.9618 8.3739 25.9711 7.38103C25.4293 7.36231 24.3458 7.44654 23.9253 7.99957C23.6729 8.32711 23.664 8.82399 23.8973 9.47952L26.1489 11.8026L25.4858 12.4488L23.0569 9.90064C22.9636 9.66668 22.8982 9.44208 22.8609 9.21704C22.7862 8.87078 22.7769 8.5428 22.8329 8.25224C22.8796 7.95233 23.0009 7.68094 23.1787 7.43718C24.0476 6.29458 26 6.43495 26.2147 6.45367L26.3827 6.47239L26.504 6.59449C26.5787 6.66936 34.1458 14.1912 35.3231 15.3155C36.2013 16.1493 36.2947 16.3365 36.2667 17.1702C36.2573 17.4421 36.248 17.8258 36.304 18.4251C36.4538 20.205 37.6773 20.9915 37.696 21.0009H37.6956Z" fill="#869FB1"/>
<path d="M19.6747 10.3039C19.6373 10.4536 19.6187 10.5851 19.6093 10.688L19.6653 10.7442L20.5249 11.6341L23.1129 14.3133L22.4404 14.9594L20.3196 12.7674L19.5347 11.9527L18.8622 11.2691C18.8622 11.2691 18.8622 11.2598 18.8529 11.2598L18.6756 11.0722V10.8944C18.6756 10.8663 18.6569 10.5949 18.7409 10.2295C18.8249 9.79856 19.0396 9.22726 19.544 8.78697C19.572 8.7589 19.6093 8.73082 19.6373 8.70275C19.8613 8.51514 20.1231 8.37476 20.4124 8.28118C21.0662 8.05658 21.8698 8.04722 22.832 8.25311C23.0093 8.29054 23.1964 8.32797 23.3831 8.38412L23.14 9.29277C23.0467 9.26469 22.9529 9.23662 22.8596 9.2179C21.8787 8.97459 21.0844 8.98394 20.5427 9.23662C20.4209 9.28341 20.3187 9.34892 20.2249 9.42423C19.9076 9.67735 19.7484 10.0236 19.6738 10.3048L19.6747 10.3039Z" fill="#869FB1"/>
<path d="M30.0164 29.2536L29.7267 30.1528C29.5493 30.0967 29.2782 30.0218 28.9702 29.947C28.008 29.7032 26.6067 29.4599 25.8498 29.7317C24.196 30.303 14.3871 28.9634 12.836 26.3596C11.8644 24.7393 12.0791 23.7366 12.4342 23.184C12.808 22.6034 13.5084 22.2847 14.2373 22.3596C14.9569 22.4438 17.4698 22.5561 18.9831 22.6123L15.62 19.184L14.9382 18.5004L7.49244 10.9126C7.41778 10.7255 6.85689 9.07664 7.75378 8.11184C8.37067 7.44696 9.48222 7.34357 11.0422 7.79321L11.1542 7.82173L15.3676 11.9149L16.3764 12.889L18.4689 14.9309L19.16 15.5958L20.468 16.8699L19.8236 17.5441L18.6369 16.3921L17.9644 15.7366L10.6689 8.65507C9.56667 8.35516 8.77244 8.39259 8.436 8.74865C8.03422 9.17958 8.212 10.0976 8.33333 10.5004L15.7324 17.9942L16.3867 18.6591L21.3102 23.6426L20.1329 23.5958C19.9276 23.5864 15.2191 23.418 14.1351 23.2963C13.8551 23.2589 13.444 23.3431 13.2196 23.6898C12.9298 24.1488 13.0796 24.9447 13.64 25.8725C14.8733 27.9519 24.2529 29.2914 25.5418 28.8418C26.8031 28.4109 28.9613 28.9541 29.7458 29.1693C29.8769 29.2068 29.9702 29.2442 30.0169 29.2536H30.0164Z" fill="#869FB1"/>
<path d="M15.4818 13.217C15.2133 11.8917 15.4062 10.955 16.052 10.4336C17.1689 9.52986 19.1076 10.3458 19.3253 10.4416L18.9493 11.2995C18.5316 11.1163 17.2107 10.6992 16.6364 11.1631C16.1987 11.5178 16.264 12.3743 16.3973 13.0303L15.4813 13.217H15.4818Z" fill="#869FB1"/>
</g>
<defs>
<clipPath id="clip0_10_1092">
<rect width="48" height="41" fill="white"/>
</clipPath>
</defs>
</svg>
