<svg width="38" height="39" viewBox="0 0 38 39" fill="none" xmlns="http://www.w3.org/2000/svg">
<g clip-path="url(#clip0_10_1136)">
<path d="M35.2921 11.9321H2.69691C1.9763 11.9321 1.29805 12.2051 0.800235 12.7094C0.280868 13.2134 0.00547886 13.8856 0.00547886 14.5999C0.00547886 16.081 1.21332 17.2782 2.69691 17.2782H35.2921C36.0233 17.2782 36.7012 16.9948 37.1888 16.4904C37.6976 15.9966 37.9945 15.3139 37.9945 14.5996C37.9945 13.129 36.7757 11.9318 35.2925 11.9318L35.2921 11.9321ZM36.6274 15.934C36.2775 16.291 35.8009 16.4908 35.2921 16.4908H2.69691C1.64795 16.4908 0.800235 15.64 0.800235 14.5999C0.800235 14.0956 0.990889 13.6232 1.36197 13.2658C1.7115 12.9085 2.1885 12.7195 2.69728 12.7195H35.2921C36.3411 12.7195 37.1998 13.5598 37.1998 14.5996C37.1998 15.1039 36.9876 15.5868 36.6274 15.9336V15.934Z" fill="#869FB1"/>
<path d="M35.2976 33.6535H2.70202C1.20784 33.6535 0 34.8511 0 36.3213C0 37.7915 1.2082 38.9996 2.70202 38.9996H35.2976C36.7918 38.9996 37.9996 37.802 37.9996 36.3213C37.9996 34.8406 36.7914 33.6535 35.2976 33.6535ZM35.2976 38.2122H2.70202C1.65306 38.2122 0.794391 37.3615 0.794391 36.3213C0.794391 35.2812 1.6527 34.4413 2.70202 34.4413H35.2976C36.3466 34.4413 37.2052 35.2816 37.2052 36.3213C37.2052 37.3611 36.3469 38.2122 35.2976 38.2122Z" fill="#869FB1"/>
<path d="M32.8922 11.9321L27.6996 7.46795H26.4812L31.684 11.9321H6.31568L19 1.03975L24.2561 5.55607L25.2627 5.51371L19 0L5.10784 11.9321L4.18598 12.7199H33.814L32.8922 11.9321Z" fill="#869FB1"/>
<path d="M11.471 18.9591C11.937 18.5182 12.234 17.9194 12.3187 17.2786C12.3399 17.1526 12.3505 17.0161 12.3505 16.8793V16.4908H3.97889V16.8793C3.97889 17.0161 3.98948 17.1522 4.01067 17.2786C4.19073 18.3918 5.04904 19.2846 5.39894 19.5999V31.3536C5.30361 31.4691 5.11295 31.6794 4.84816 31.9629C4.38175 32.4248 4.08518 33.0131 4.00044 33.6539C3.98985 33.7799 3.97926 33.9164 3.97926 34.0427V34.4417H12.3505V34.0427C12.3505 33.9062 12.3399 33.7803 12.3187 33.6539C12.1492 32.5302 11.2698 31.6374 10.9199 31.3116V19.5579C11.0152 19.4424 11.1952 19.2321 11.471 18.9591ZM10.2628 31.7945C10.284 31.805 11.28 32.6243 11.5028 33.6536H4.80579C4.87993 33.2231 5.09177 32.8238 5.40989 32.5088C5.8763 32.036 6.09873 31.742 6.10932 31.721L6.19406 31.6265V19.2321L6.04577 19.1166C6.03518 19.1061 5.03918 18.2973 4.81675 17.2786H11.5137C11.4396 17.709 11.2278 18.0979 10.9096 18.4023C10.4326 18.8748 10.2102 19.1796 10.1996 19.1901L10.1255 19.2951V31.679L10.2632 31.7945H10.2628Z" fill="#869FB1"/>
<path d="M33.1518 18.9591C33.6073 18.5182 33.9042 17.9194 33.9996 17.2786C34.0098 17.1526 34.0207 17.0161 34.0207 16.8793V16.4908H25.6491V16.8793C25.6491 17.0161 25.6597 17.1522 25.6809 17.2786C25.861 18.3918 26.7193 19.2846 27.0692 19.5999V31.3536C26.9739 31.4691 26.7938 31.6794 26.518 31.9629C26.0516 32.4248 25.7551 33.0131 25.6703 33.6539C25.6597 33.7799 25.6491 33.9164 25.6491 34.0427V34.4417H34.0207V34.0427C34.0207 33.9062 34.0098 33.7803 33.989 33.6539C33.8191 32.5302 32.94 31.6374 32.5901 31.3116V19.5579C32.6854 19.4424 32.8655 19.2321 33.1518 18.9591ZM31.9436 31.7945C31.9542 31.805 32.9502 32.6243 33.1836 33.6536H26.4757C26.5498 33.2231 26.7617 32.8238 27.0798 32.5088C27.5458 32.036 27.7686 31.742 27.7792 31.721L27.8639 31.6265V19.2321L27.7153 19.1166C27.7047 19.1061 26.7087 18.2973 26.4863 17.2786H33.1836C33.1095 17.6985 32.8976 18.0979 32.5901 18.4023C32.1029 18.8748 31.8801 19.1796 31.8695 19.1901L31.7954 19.2951V31.679L31.9436 31.7945Z" fill="#869FB1"/>
<path d="M17.4178 28.3151L14.5171 25.7135L15.2267 24.9341L17.4094 26.8912L22.7645 21.9882L23.4829 22.7594L17.4178 28.3151Z" fill="#869FB1"/>
</g>
<defs>
<clipPath id="clip0_10_1136">
<rect width="38" height="39" fill="white"/>
</clipPath>
</defs>
</svg>
