<svg width="40" height="41" viewBox="0 0 40 41" fill="none" xmlns="http://www.w3.org/2000/svg">
<g clip-path="url(#clip0_10_1127)">
<path d="M37.1557 12.5441H2.84431C2.08577 12.5441 1.37172 12.8311 0.847494 13.3611C0.301025 13.891 0.0111084 14.5979 0.0111084 15.3488C0.0111084 16.9057 1.28275 18.1645 2.84431 18.1645H37.1557C37.9253 18.1645 38.639 17.8665 39.1521 17.3362C39.6878 16.8172 40 16.0993 40 15.3484C40 13.8026 38.7172 12.5437 37.1557 12.5437V12.5441ZM38.5611 16.7512C38.193 17.1266 37.691 17.3365 37.1557 17.3365H2.84431C1.73987 17.3365 0.847494 16.4421 0.847494 15.3488C0.847494 14.8188 1.04806 14.3219 1.43883 13.9465C1.80698 13.571 2.30896 13.3721 2.84431 13.3721H37.1557C38.2601 13.3721 39.1636 14.2555 39.1636 15.3488C39.1636 15.8788 38.9404 16.3867 38.5611 16.7512Z" fill="#869FB1"/>
<path d="M37.1557 35.3792H2.84432C1.27164 35.3792 0 36.6381 0 38.1839C0 39.7298 1.27164 40.9996 2.84432 40.9996H37.1557C38.7284 40.9996 40 39.7408 40 38.1839C40 36.627 38.7284 35.3792 37.1557 35.3792ZM37.1557 40.1716H2.84432C1.73988 40.1716 0.836385 39.2772 0.836385 38.1839C0.836385 37.0906 1.73988 36.2072 2.84432 36.2072H37.1557C38.2601 36.2072 39.1636 37.0906 39.1636 38.1839C39.1636 39.2772 38.2601 40.1716 37.1557 40.1716Z" fill="#869FB1"/>
<path d="M34.6235 12.5441L29.1577 7.85112H27.8749L33.3515 12.5441H6.64813L20 1.09333L25.5326 5.84136L26.5921 5.79694L20 0L5.37649 12.5441L4.40588 13.3725H35.5937L34.6235 12.5441Z" fill="#869FB1"/>
<path d="M12.0802 19.9313C12.5711 19.4678 12.8832 18.838 12.9726 18.1649C12.9948 18.0324 13.0059 17.8889 13.0059 17.745V17.3365H4.19418V17.745C4.19418 17.8889 4.2053 18.032 4.22755 18.1649C4.41699 19.3353 5.32048 20.2737 5.68863 20.6052V32.9613C5.58816 33.0828 5.38759 33.3038 5.1088 33.6018C4.61794 34.0877 4.30539 34.7061 4.21643 35.3796C4.2053 35.5121 4.19418 35.6556 4.19418 35.7884V36.2079H13.0059V35.7884C13.0059 35.6449 12.9948 35.5125 12.9726 35.3796C12.7943 34.1982 11.8681 33.2597 11.5004 32.9173V20.5611C11.6005 20.4396 11.7903 20.2187 12.0806 19.9317L12.0802 19.9313ZM10.8086 33.4252C10.8308 33.4363 11.8793 34.2976 12.1136 35.3796H5.06432C5.14216 34.9271 5.36535 34.5072 5.70014 34.1762C6.191 33.6792 6.42531 33.3698 6.43643 33.3478L6.52578 33.2483V20.2183L6.36971 20.0968C6.35858 20.0858 5.31013 19.2355 5.07582 18.1645H12.1255C12.0476 18.617 11.8244 19.0259 11.4896 19.3459C10.9877 19.8429 10.7533 20.1629 10.7422 20.1743L10.6644 20.2848V33.3038L10.8093 33.4252H10.8086Z" fill="#869FB1"/>
<path d="M34.9023 19.9313C35.382 19.4678 35.6942 18.838 35.7947 18.1649C35.8054 18.0324 35.8169 17.8889 35.8169 17.745V17.3365H27.0048V17.745C27.0048 17.8889 27.0159 18.032 27.0381 18.1649C27.2276 19.3353 28.1311 20.2737 28.4996 20.6052V32.9613C28.3991 33.0828 28.2097 33.3038 27.9194 33.6018C27.4285 34.0877 27.1164 34.7061 27.027 35.3796C27.0159 35.5121 27.0048 35.6556 27.0048 35.7884V36.2079H35.8169V35.7884C35.8169 35.6449 35.8054 35.5125 35.7835 35.3796C35.6048 34.1982 34.6791 33.2597 34.311 32.9173V20.5611C34.411 20.4396 34.6009 20.2187 34.9023 19.9317V19.9313ZM33.6306 33.4252C33.6418 33.4363 34.6902 34.2976 34.936 35.3796H27.8753C27.9535 34.9271 28.1763 34.5072 28.5111 34.1762C29.002 33.6792 29.2359 33.3698 29.247 33.3478L29.3364 33.2483V20.2183L29.1799 20.0968C29.1688 20.0858 28.1203 19.2355 27.886 18.1645H34.9357C34.8574 18.606 34.6346 19.0259 34.311 19.3459C33.7979 19.8429 33.5635 20.1629 33.5524 20.1743L33.4742 20.2848V33.3038L33.6303 33.4252H33.6306Z" fill="#869FB1"/>
<path d="M21.9186 26.4021C21.4388 26.2142 20.9595 26.0597 20.4686 25.9052C20.3681 25.8721 20.3348 25.8277 20.3348 25.7172V22.6806C21.1378 22.7026 21.6843 23.1445 21.8741 23.8954C21.8963 24.0059 21.8963 24.1604 21.9635 24.2048C22.0417 24.2599 22.1866 24.2268 22.3094 24.2268H23.0679C23.1013 23.1779 22.4321 22.2281 21.4059 21.8967C21.0715 21.7862 20.7033 21.7311 20.3352 21.6427V20.8477H19.7105V21.4992C19.7105 21.6318 19.6436 21.7018 19.5099 21.7091H19.4654C18.0599 21.7645 16.967 22.8355 16.9221 24.2268C16.8888 25.1873 17.2569 25.9382 18.1493 26.4021C18.5953 26.6451 19.075 26.7886 19.5659 26.888C19.6775 26.91 19.7109 26.9545 19.7109 27.0646V30.4546C18.7406 30.4106 18.1271 29.9247 17.9821 29.0083C17.9376 28.7873 17.9154 28.5664 17.8927 28.3458H16.7104C16.7549 28.6992 16.7664 29.0523 16.8443 29.3837C17.0786 30.4881 17.8149 31.0955 18.8856 31.338C19.1533 31.4045 19.4321 31.4265 19.7109 31.4815V32.7074H20.3356V31.4705C20.4027 31.4595 20.4583 31.4485 20.5139 31.4375C20.9265 31.338 21.3391 31.261 21.7295 31.1285C22.2426 30.9626 22.633 30.6095 22.9118 30.1346C23.2129 29.6047 23.3022 29.0196 23.2911 28.4233C23.28 27.4514 22.8336 26.7559 21.919 26.4025L21.9186 26.4021ZM19.699 25.7283C19.2307 25.6292 18.7955 25.4743 18.4611 25.1433C18.1152 24.8118 18.0596 24.3813 18.1263 23.9398C18.2601 23.1669 18.8511 22.681 19.6322 22.681H19.699V25.7286V25.7283ZM20.8256 30.4323C20.6696 30.4653 20.5135 30.4877 20.3459 30.5097V27.0756C20.8701 27.2411 21.4166 27.3626 21.7847 27.8045C22.5322 28.7099 21.9853 30.2007 20.8253 30.4323H20.8256Z" fill="#869FB1"/>
</g>
<defs>
<clipPath id="clip0_10_1127">
<rect width="40" height="41" fill="white"/>
</clipPath>
</defs>
</svg>
