<svg width="46" height="27" viewBox="0 0 46 27" fill="none" xmlns="http://www.w3.org/2000/svg">
<g clip-path="url(#clip0_10_1114)">
<path d="M32.0458 22.5119C31.832 22.7274 31.6007 22.9339 31.369 23.131C31.5207 23.3821 31.6987 23.6337 31.8857 23.8672C32.1174 23.6788 32.3397 23.4723 32.5535 23.2658C32.3576 23.0232 32.1885 22.772 32.0462 22.5119H32.0458ZM36.507 11.1752C36.2131 11.2379 35.9281 11.3096 35.6521 11.4083C35.6969 11.7046 35.7412 12.0098 35.768 12.3151C36.044 12.2163 36.3379 12.1356 36.6318 12.0729C36.6049 11.7677 36.5696 11.4715 36.507 11.1752ZM23.319 0C15.9364 0 9.92578 6.04999 9.92578 13.5C9.92578 20.95 15.9369 27 23.319 27C25.7766 27 28.083 26.3358 30.0602 25.1599C29.8817 24.9264 29.7037 24.6752 29.5435 24.4236C27.709 25.4918 25.5896 26.1023 23.319 26.1023C16.4267 26.1023 10.8164 20.4473 10.8164 13.5C10.8164 6.55273 16.4263 0.89771 23.319 0.89771C28.7419 0.89771 33.3551 4.38036 35.0827 9.23641C35.3233 9.1557 35.6083 9.07499 35.9464 9.00286C34.1116 3.76085 29.1427 0 23.319 0Z" fill="#869FB1"/>
<path d="M38.1012 11.0134C37.5581 11.0134 37.0236 11.0675 36.5069 11.1752C36.2131 11.2379 35.9281 11.3096 35.6521 11.4083C32.4909 12.4499 30.2024 15.4388 30.2024 18.9661C30.2024 20.4919 30.63 21.919 31.3686 23.131C31.5202 23.3821 31.6982 23.6337 31.8852 23.8672C33.3278 25.7339 35.581 26.9279 38.1008 26.9279C42.4554 26.9279 45.9996 23.3555 45.9996 18.9661C45.9996 14.5767 42.4554 11.0134 38.1008 11.0134H38.1012ZM38.1012 26.0302C35.8391 26.0302 33.827 24.944 32.5535 23.2653C32.3576 23.0228 32.1885 22.7716 32.0462 22.5114C31.4406 21.4699 31.0934 20.2584 31.0934 18.9661C31.0934 15.905 33.0437 13.284 35.7684 12.3146C36.0444 12.2159 36.3383 12.1352 36.6322 12.0725C37.1041 11.9647 37.5939 11.9106 38.1016 11.9106C41.9665 11.9106 45.1098 15.079 45.1098 18.9657C45.1098 22.8523 41.9665 26.0297 38.1016 26.0297L38.1012 26.0302Z" fill="#869FB1"/>
<path d="M26.0926 12.9432C25.4073 12.6645 24.7003 12.4422 24.0039 12.2082C23.8604 12.1635 23.805 12.1077 23.805 11.9407V7.48479C24.9656 7.50712 25.7502 8.15281 26.0262 9.2669C26.0594 9.42318 26.0483 9.64556 26.1476 9.7237C26.2694 9.80184 26.4794 9.74602 26.6451 9.74602H27.7503C27.8053 8.19789 26.8329 6.80518 25.352 6.32648C24.866 6.15948 24.3353 6.08134 23.805 5.95898V4.77835H22.8986V5.7366C22.8986 5.93723 22.7991 6.04127 22.6 6.04871H22.5451C20.5228 6.13801 18.9422 7.70847 18.8762 9.74688C18.8208 11.1508 19.3622 12.2649 20.6442 12.9552C21.2852 13.3004 21.9812 13.512 22.6886 13.6571C22.8543 13.6902 22.9097 13.746 22.9097 13.9242C22.8986 15.5062 22.8986 17.099 22.8986 18.6922V18.9039C21.5063 18.8369 20.6114 18.1238 20.401 16.7762C20.3456 16.4529 20.3128 16.13 20.2685 15.796H18.5665C18.633 16.3194 18.6551 16.832 18.7544 17.3218C19.0968 18.9485 20.1689 19.8394 21.7162 20.2069C22.103 20.2962 22.4897 20.3408 22.9097 20.4074V22.2234H23.805V20.385C23.9047 20.3739 23.9818 20.3631 24.0703 20.3408C24.656 20.1957 25.2527 20.0957 25.8166 19.8952C26.568 19.6389 27.1208 19.1267 27.5186 18.4359C27.9608 17.6563 28.0821 16.7873 28.0711 15.9076C28.0596 14.4814 27.4079 13.4678 26.0926 12.9445V12.9432ZM22.8875 11.9514C22.2137 11.8179 21.5834 11.5839 21.0974 11.0941C20.5999 10.6038 20.5117 9.98 20.622 9.32271C20.8103 8.19746 21.6609 7.48479 22.7883 7.46247C22.8215 7.46247 22.8437 7.47363 22.8875 7.47363V11.9514ZM24.512 18.8691C24.291 18.9249 24.0588 18.9472 23.8161 18.9803V13.9345C24.5785 14.1792 25.363 14.3578 25.8937 15.0039C26.9879 16.3404 26.1923 18.5239 24.5125 18.8691H24.512Z" fill="#869FB1"/>
<path d="M10.4454 3.88019H7.0163V4.7779H10.4454V3.88019Z" fill="#869FB1"/>
<path d="M3.42828 9.99588H0V10.8936H3.42828V9.99588Z" fill="#869FB1"/>
<path d="M8.73104 9.99158H6.41528V10.8893H8.73104V9.99158Z" fill="#869FB1"/>
<path d="M10.7061 22.8253H9.21619V23.723H10.7061V22.8253Z" fill="#869FB1"/>
<path d="M7.52526 16.103H4.09613V17.0007H7.52526V16.103Z" fill="#869FB1"/>
<path d="M5.8109 22.8253H2.38177V23.723H5.8109V22.8253Z" fill="#869FB1"/>
<path d="M36.7621 21.9319L34.1473 19.1743L34.7909 18.554L36.8596 20.7362L42.26 16.1923L42.7941 16.9109L36.7621 21.9319Z" fill="#869FB1"/>
</g>
<defs>
<clipPath id="clip0_10_1114">
<rect width="46" height="27" fill="white"/>
</clipPath>
</defs>
</svg>
