<svg width="47" height="27" viewBox="0 0 47 27" fill="none" xmlns="http://www.w3.org/2000/svg">
<g clip-path="url(#clip0_10_1100)">
<path d="M32.7425 22.5119C32.524 22.7274 32.2877 22.9339 32.0509 23.131C32.2059 23.3821 32.3878 23.6337 32.5788 23.8672C32.8156 23.6788 33.0427 23.4723 33.2612 23.2658C33.061 23.0232 32.8882 22.772 32.7429 22.5119H32.7425ZM37.3006 11.1752C37.0003 11.2379 36.7092 11.3096 36.4272 11.4083C36.4729 11.7046 36.5181 12.0098 36.5455 12.3151C36.8275 12.2163 37.1278 12.1356 37.4281 12.0729C37.4007 11.7677 37.3646 11.4715 37.3006 11.1752ZM23.8259 0C16.2829 0 10.1415 6.04999 10.1415 13.5C10.1415 20.95 16.2833 27 23.8259 27C26.337 27 28.6935 26.3358 30.7136 25.1599C30.5313 24.9264 30.3494 24.6752 30.1857 24.4236C28.3114 25.4918 26.1459 26.1023 23.8259 26.1023C16.7838 26.1023 11.0515 20.4473 11.0515 13.5C11.0515 6.55273 16.7833 0.89771 23.8259 0.89771C29.3667 0.89771 34.0802 4.38036 35.8453 9.23641C36.0912 9.1557 36.3823 9.07499 36.7279 9.00286C34.8531 3.76085 29.7762 0 23.8259 0Z" fill="#869FB1"/>
<path d="M38.9295 11.0134C38.3746 11.0134 37.8285 11.0675 37.3006 11.1752C37.0003 11.2379 36.7092 11.3096 36.4272 11.4083C33.1972 12.4499 30.859 15.4388 30.859 18.9661C30.859 20.4919 31.2959 21.919 32.0505 23.131C32.2054 23.3821 32.3873 23.6337 32.5784 23.8672C34.0524 25.7339 36.3545 26.9279 38.9291 26.9279C43.3784 26.9279 46.9996 23.3555 46.9996 18.9661C46.9996 14.5767 43.3784 11.0134 38.9291 11.0134H38.9295ZM38.9295 26.0302C36.6182 26.0302 34.5624 24.944 33.2612 23.2653C33.061 23.0228 32.8882 22.7716 32.7429 22.5114C32.1241 21.4699 31.7694 20.2584 31.7694 18.9661C31.7694 15.905 33.7621 13.284 36.546 12.3146C36.828 12.2159 37.1283 12.1352 37.4285 12.0725C37.9107 11.9647 38.4112 11.9106 38.9299 11.9106C42.8788 11.9106 46.0905 15.079 46.0905 18.9657C46.0905 22.8523 42.8788 26.0297 38.9299 26.0297L38.9295 26.0302Z" fill="#869FB1"/>
<path d="M26.1098 13.0514C25.5454 12.8268 24.9635 12.6474 24.39 12.4589C24.2716 12.4228 24.2263 12.3782 24.2263 12.2434V8.65297C25.1816 8.671 25.8278 9.19133 26.055 10.089C26.0824 10.2148 26.0733 10.3943 26.1551 10.457C26.2552 10.5197 26.4279 10.475 26.5646 10.475H27.4746C27.5198 9.2274 26.7195 8.10558 25.5001 7.71962C25.0997 7.58524 24.6633 7.52213 24.2263 7.42339V6.47202H23.48V7.24393C23.48 7.40565 23.398 7.48936 23.2341 7.49509H23.1888C21.5238 7.56678 20.2226 8.83242 20.1682 10.475C20.1225 11.6063 20.5686 12.504 21.6239 13.0604C22.1518 13.3386 22.7249 13.509 23.3072 13.6258C23.4434 13.6524 23.4891 13.6975 23.4891 13.8409C23.48 15.1155 23.48 16.3992 23.48 17.6829V17.8533C22.3337 17.7992 21.5969 17.2248 21.4237 16.1386C21.378 15.8784 21.3511 15.6178 21.3145 15.3487H19.9132C19.968 15.7707 19.9859 16.1833 20.0677 16.5782C20.3497 17.8889 21.2323 18.6068 22.5065 18.903C22.8246 18.9747 23.1432 19.0108 23.4891 19.0644V20.5276H24.2263V19.0464C24.3081 19.0374 24.3717 19.0288 24.4448 19.0108C24.927 18.894 25.4183 18.8133 25.8826 18.6514C26.5015 18.4449 26.9562 18.0323 27.2839 17.4755C27.6478 16.8474 27.7478 16.1472 27.7387 15.438C27.7296 14.2887 27.1926 13.4721 26.1098 13.0501V13.0514ZM23.4713 12.2524C22.9164 12.1446 22.3977 11.9562 21.9973 11.5616C21.5878 11.1666 21.5151 10.6639 21.6061 10.1346C21.761 9.22783 22.4617 8.65339 23.3895 8.63579C23.4169 8.63579 23.4352 8.64481 23.4713 8.64481V12.2528V12.2524ZM24.8086 17.8267C24.6267 17.8718 24.4357 17.8894 24.2355 17.9164V13.8503C24.863 14.0474 25.5093 14.1912 25.9457 14.712C26.8466 15.7891 26.1916 17.5485 24.8086 17.8267Z" fill="#869FB1"/>
<path d="M10.6725 3.88022H7.16879V4.77793H10.6725V3.88022Z" fill="#869FB1"/>
<path d="M3.50281 9.99588H0V10.8936H3.50281V9.99588Z" fill="#869FB1"/>
<path d="M8.92085 9.99158H6.55475V10.8893H8.92085V9.99158Z" fill="#869FB1"/>
<path d="M10.9388 22.8253H9.41653V23.723H10.9388V22.8253Z" fill="#869FB1"/>
<path d="M7.68886 16.103H4.18518V17.0007H7.68886V16.103Z" fill="#869FB1"/>
<path d="M5.93724 22.8253H2.43356V23.723H5.93724V22.8253Z" fill="#869FB1"/>
<path d="M40.8404 18.5175C40.6676 17.8082 40.1032 17.2518 39.3847 17.0814C39.2393 17.0453 39.0844 17.0273 38.9299 17.0273C38.7754 17.0273 38.6205 17.0453 38.4752 17.0814C37.6109 17.2789 36.9651 18.0508 36.9651 18.9666C36.9651 20.0437 37.8476 20.9054 38.9304 20.9054C39.8586 20.9054 40.6411 20.2773 40.8413 19.4156C40.8778 19.2718 40.8961 19.1194 40.8961 18.967C40.8961 18.8146 40.8778 18.6617 40.8413 18.5183L40.8404 18.5175ZM38.9295 20.0072C38.3472 20.0072 37.8742 19.5406 37.8742 18.9661C37.8742 18.3917 38.3472 17.9246 38.9295 17.9246C39.5118 17.9246 39.9852 18.3913 39.9852 18.9661C39.9852 19.541 39.5122 20.0072 38.9295 20.0072Z" fill="#869FB1"/>
<path d="M39.3834 13.8529H38.4734V17.6022H39.3834V13.8529Z" fill="#869FB1"/>
<path d="M43.4084 18.5213H40.447V19.419H43.4084V18.5213Z" fill="#869FB1"/>
</g>
<defs>
<clipPath id="clip0_10_1100">
<rect width="47" height="27" fill="white"/>
</clipPath>
</defs>
</svg>
