<svg width="153" height="32" viewBox="0 0 153 32" fill="none" xmlns="http://www.w3.org/2000/svg">
<g clip-path="url(#clip0_11_100)">
<path d="M8.42898 0V2.22696L2.25808 8.29086L8.42898 14.3606V16.5876L0 8.29086L8.42898 0Z" fill="white"/>
<path d="M40.4901 14.96C40.4901 19.8663 37.2105 24.0382 32.6884 25.4543C35.1556 24.4671 36.8939 22.0874 36.8939 19.314C36.8939 18.0272 36.5176 16.8285 35.8724 15.812C34.6836 13.9376 32.5629 12.6919 30.1555 12.6919H11.8698V16.5876L10.693 15.43L8.42895 13.2031L3.44086 8.29086L8.42895 3.3845L11.8698 0V3.95446H29.2953C35.4662 3.95446 40.4842 8.89019 40.4842 14.96H40.4901Z" fill="white"/>
<path d="M31.1113 21.2354C31.8341 20.8887 32.33 20.1601 32.33 19.314C32.33 18.1329 31.3562 17.1752 30.1555 17.1752H16.4338V21.4528H30.1555C30.496 21.4528 30.8246 21.3764 31.1113 21.2354V21.2354Z" fill="white"/>
<path d="M28.3395 25.942H22.3L22.3239 25.9714H16.6429L27.8317 32H33.5128H33.8712H39.5582L28.3694 25.9714L28.3395 25.942Z" fill="white"/>
<path d="M59.5883 23.3742L57.2287 20.0191H54.6241V23.3742H51.7925V11.3346H57.0913C58.1725 11.3346 59.1164 11.5108 59.9169 11.8693C60.7173 12.2218 61.3326 12.7271 61.7628 13.3852C62.1929 14.0375 62.4079 14.8131 62.4079 15.7062C62.4079 16.5993 62.1869 17.3691 61.7508 18.0213C61.3147 18.6677 60.6934 19.1671 59.887 19.5079L62.6289 23.3742H59.5883V23.3742ZM58.8715 14.1491C58.4294 13.7907 57.7842 13.6085 56.93 13.6085H54.6241V17.8039H56.93C57.7783 17.8039 58.4294 17.6217 58.8715 17.2516C59.3135 16.8873 59.5345 16.3702 59.5345 15.7062C59.5345 15.0422 59.3135 14.5134 58.8715 14.1491Z" fill="white"/>
<path d="M73.9194 14.1197V23.3683H71.3327V22.2695C70.9743 22.6691 70.5382 22.9805 70.0364 23.1921C69.5346 23.4036 68.991 23.5093 68.4116 23.5093C67.175 23.5093 66.1953 23.1627 65.4725 22.4576C64.7497 21.7583 64.3912 20.7183 64.3912 19.3434V14.1138H67.1153V18.9438C67.1153 20.4363 67.7485 21.1766 69.0209 21.1766C69.672 21.1766 70.1977 20.9651 70.592 20.5479C70.9863 20.1307 71.1894 19.5079 71.1894 18.6853V14.1138H73.9134L73.9194 14.1197Z" fill="white"/>
<path d="M84.4033 14.578C85.1201 14.9717 85.6817 15.5299 86.0879 16.2468C86.4941 16.9636 86.6972 17.798 86.6972 18.7499C86.6972 19.7018 86.4941 20.5362 86.0879 21.253C85.6817 21.9699 85.1201 22.5281 84.4033 22.9218C83.6864 23.3155 82.8919 23.5152 82.0198 23.5152C80.819 23.5152 79.8752 23.1451 79.1882 22.3988V26.7117H76.4582V14.1197H79.0628V15.1833C79.7378 14.3783 80.7235 13.9787 82.0198 13.9787C82.8919 13.9787 83.6864 14.1785 84.4033 14.5722V14.578ZM83.2683 20.6126C83.7163 20.1484 83.9433 19.5255 83.9433 18.7499C83.9433 17.9743 83.7163 17.3514 83.2683 16.8873C82.8202 16.4231 82.2468 16.188 81.5478 16.188C80.8489 16.188 80.2754 16.4172 79.8274 16.8873C79.3794 17.3514 79.1524 17.9743 79.1524 18.7499C79.1524 19.5255 79.3794 20.1484 79.8274 20.6126C80.2754 21.0768 80.8489 21.3059 81.5478 21.3059C82.2468 21.3059 82.8202 21.0768 83.2683 20.6126Z" fill="white"/>
<path d="M97.677 19.502H90.5623C90.6877 20.0779 90.9924 20.5303 91.4703 20.8593C91.9482 21.1943 92.5396 21.3588 93.2564 21.3588C93.7463 21.3588 94.1824 21.2883 94.5587 21.1414C94.9351 20.9945 95.2875 20.7712 95.6161 20.4598L97.0677 22.0051C96.1836 23.004 94.8873 23.5035 93.1848 23.5035C92.1214 23.5035 91.1835 23.2978 90.3711 22.8924C89.5527 22.487 88.9255 21.9229 88.4834 21.2001C88.0413 20.4774 87.8203 19.6607 87.8203 18.744C87.8203 17.8274 88.0413 17.0224 88.4774 16.2938C88.9135 15.5652 89.5169 15.0011 90.2755 14.5898C91.0402 14.1844 91.8944 13.9787 92.8383 13.9787C93.7821 13.9787 94.5946 14.1726 95.3353 14.5604C96.082 14.9482 96.6675 15.5123 97.0916 16.235C97.5157 16.9636 97.7308 17.8098 97.7308 18.7734C97.7308 18.8087 97.7129 19.0496 97.677 19.4961V19.502ZM91.297 16.5288C90.8789 16.8755 90.622 17.3456 90.5264 17.939H95.1561C95.0605 17.3573 94.8096 16.8873 94.3855 16.5406C93.9673 16.1939 93.4536 16.0176 92.8502 16.0176C92.2469 16.0176 91.7152 16.188 91.297 16.5347V16.5288Z" fill="white"/>
<path d="M108.705 19.502H101.59C101.715 20.0779 102.02 20.5303 102.498 20.8593C102.976 21.1943 103.567 21.3588 104.284 21.3588C104.774 21.3588 105.21 21.2883 105.586 21.1414C105.963 20.9945 106.315 20.7712 106.644 20.4598L108.095 22.0051C107.211 23.004 105.915 23.5035 104.212 23.5035C103.149 23.5035 102.211 23.2978 101.399 22.8924C100.58 22.487 99.953 21.9229 99.511 21.2001C99.0689 20.4774 98.8479 19.6607 98.8479 18.744C98.8479 17.8274 99.0689 17.0224 99.505 16.2938C99.9411 15.5652 100.544 15.0011 101.303 14.5898C102.068 14.1844 102.922 13.9787 103.866 13.9787C104.81 13.9787 105.622 14.1726 106.363 14.5604C107.11 14.9482 107.695 15.5123 108.119 16.235C108.543 16.9636 108.758 17.8098 108.758 18.7734C108.758 18.8087 108.74 19.0496 108.705 19.4961V19.502ZM102.325 16.5288C101.906 16.8755 101.65 17.3456 101.554 17.939H106.184C106.088 17.3573 105.837 16.8873 105.413 16.5406C104.995 16.1939 104.481 16.0176 103.878 16.0176C103.274 16.0176 102.743 16.188 102.325 16.5347V16.5288Z" fill="white"/>
<path d="M113.245 22.7807C112.235 22.246 111.447 21.5057 110.867 20.5655C110.288 19.6254 110.001 18.5501 110.001 17.3573C110.001 16.1645 110.288 15.0951 110.867 14.1491C111.447 13.2031 112.235 12.4627 113.245 11.9339C114.254 11.4051 115.383 11.1348 116.644 11.1348C117.707 11.1348 118.663 11.3169 119.517 11.6871C120.371 12.0514 121.094 12.5802 121.674 13.2677L119.858 14.9188C119.033 13.9787 118.006 13.5086 116.781 13.5086C116.022 13.5086 115.347 13.6731 114.756 13.9963C114.159 14.3254 113.699 14.7778 113.364 15.3654C113.03 15.9471 112.868 16.617 112.868 17.3573C112.868 18.0977 113.036 18.7675 113.364 19.3492C113.699 19.9368 114.159 20.3893 114.756 20.7183C115.353 21.0474 116.028 21.206 116.781 21.206C118.006 21.206 119.027 20.7301 119.858 19.7782L121.674 21.4293C121.088 22.1285 120.365 22.6632 119.505 23.0275C118.645 23.3918 117.683 23.5799 116.62 23.5799C115.371 23.5799 114.248 23.3154 113.239 22.7807H113.245Z" fill="white"/>
<path d="M130.467 15.007C131.25 15.6886 131.638 16.7168 131.638 18.0918V23.3683H129.087V22.2167C128.573 23.0745 127.618 23.5093 126.22 23.5093C125.497 23.5093 124.87 23.386 124.338 23.145C123.806 22.9041 123.4 22.5751 123.125 22.1461C122.844 21.7231 122.707 21.2413 122.707 20.7007C122.707 19.8428 123.036 19.1671 123.693 18.6735C124.35 18.1799 125.365 17.9331 126.745 17.9331H128.914C128.914 17.3514 128.735 16.899 128.37 16.5817C128.012 16.2644 127.468 16.1116 126.745 16.1116C126.244 16.1116 125.754 16.188 125.27 16.3467C124.786 16.4994 124.374 16.711 124.039 16.9754L123.06 15.101C123.573 14.7484 124.189 14.4723 124.905 14.2784C125.622 14.0844 126.357 13.9846 127.116 13.9846C128.573 13.9846 129.69 14.3254 130.473 15.007H130.467ZM128.143 21.3882C128.502 21.1766 128.759 20.8652 128.914 20.4539V19.5079H127.044C125.927 19.5079 125.365 19.8663 125.365 20.589C125.365 20.9298 125.503 21.206 125.778 21.4058C126.052 21.6056 126.429 21.7055 126.907 21.7055C127.385 21.7055 127.785 21.5997 128.149 21.3882H128.143Z" fill="white"/>
<path d="M134.977 23.2273C134.23 23.0393 133.639 22.7984 133.191 22.5163L134.099 20.589C134.517 20.8535 135.025 21.065 135.622 21.2354C136.22 21.3999 136.799 21.4822 137.373 21.4822C138.526 21.4822 139.105 21.2001 139.105 20.6419C139.105 20.3775 138.95 20.1895 138.633 20.072C138.317 19.9544 137.833 19.8604 137.182 19.7782C136.411 19.6665 135.778 19.5314 135.276 19.3845C134.774 19.2376 134.338 18.9732 133.974 18.5912C133.603 18.2152 133.424 17.6746 133.424 16.9754C133.424 16.3937 133.597 15.8707 133.938 15.4183C134.284 14.9658 134.78 14.6133 135.443 14.3606C136.1 14.108 136.877 13.9846 137.779 13.9846C138.442 13.9846 139.105 14.0551 139.762 14.202C140.419 14.343 140.963 14.5428 141.399 14.7954L140.491 16.7051C139.667 16.2468 138.759 16.0176 137.779 16.0176C137.193 16.0176 136.757 16.0999 136.471 16.2585C136.178 16.4172 136.035 16.6228 136.035 16.8755C136.035 17.1634 136.19 17.3632 136.506 17.4748C136.823 17.5923 137.325 17.6981 138.012 17.8039C138.782 17.9273 139.41 18.0624 139.9 18.2093C140.389 18.3562 140.814 18.6147 141.178 18.9908C141.542 19.3669 141.722 19.8957 141.722 20.5714C141.722 21.1472 141.548 21.6526 141.196 22.0991C140.843 22.5457 140.336 22.8924 139.667 23.1392C138.998 23.386 138.203 23.5093 137.283 23.5093C136.5 23.5093 135.742 23.4153 134.995 23.2273H134.977Z" fill="white"/>
<path d="M151.925 15.0128C152.642 15.7003 153 16.7227 153 18.0742V23.3683H150.27V18.4855C150.27 17.751 150.109 17.2045 149.78 16.8461C149.452 16.4818 148.98 16.3055 148.364 16.3055C147.677 16.3055 147.128 16.5171 146.722 16.9343C146.315 17.3514 146.112 17.9743 146.112 18.8028V23.3742H143.382V10.6118H146.112V15.0834C146.471 14.7308 146.913 14.4546 147.421 14.2666C147.928 14.0786 148.49 13.9846 149.099 13.9846C150.264 13.9846 151.208 14.3254 151.925 15.0128V15.0128Z" fill="white"/>
</g>
<defs>
<clipPath id="clip0_11_100">
<rect width="153" height="32" fill="white"/>
</clipPath>
</defs>
</svg>
